<?xml version="1.0" standalone="no"?>
<!DOCTYPE svg PUBLIC "-//W3C//DTD SVG 20010904//EN"
 "http://www.w3.org/TR/2001/REC-SVG-20010904/DTD/svg10.dtd">
<svg version="1.0" xmlns="http://www.w3.org/2000/svg"
 width="700.000000pt" height="700.000000pt" viewBox="0 0 700.000000 700.000000"
 preserveAspectRatio="xMidYMid meet">
<metadata>
Created by potrace 1.14, written by Peter Selinger 2001-2017
</metadata>
<g transform="translate(0.000000,700.000000) scale(0.100000,-0.100000)"
fill="#000000" stroke="none">
<path d="M3220 6994 c-182 -20 -243 -29 -360 -50 -786 -142 -1524 -572 -2041
-1189 -436 -522 -692 -1103 -796 -1810 -25 -173 -25 -717 0 -890 70 -477 202
-877 416 -1258 281 -503 667 -917 1146 -1229 449 -293 903 -461 1470 -545 152
-22 705 -26 855 -5 823 113 1504 445 2065 1007 493 492 830 1119 959 1783 55
283 61 346 61 692 0 346 -6 409 -61 692 -221 1140 -1039 2123 -2127 2559 -53
21 -100 39 -102 39 -3 0 -5 -925 -5 -2055 l0 -2055 475 0 475 0 0 -360 0 -360
-475 0 -475 0 0 -760 0 -760 -445 0 -445 0 0 760 0 760 -1495 0 -1495 0 0 420
0 420 1377 2035 1377 2035 436 1 c486 1 484 0 205 59 -250 52 -357 62 -670 65
-159 2 -306 1 -325 -1z"/>
<path d="M2673 4401 l-1132 -1716 1131 -3 c622 -1 1133 -1 1135 1 2 2 2 776 1
1719 l-3 1715 -1132 -1716z"/>
</g>
</svg>
